<?xml version="1.0" encoding="utf-8"?>
<!-- Generator: Adobe Illustrator 23.0.1, SVG Export Plug-In . SVG Version: 6.00 Build 0)  -->
<svg version="1.1" id="Layer_1" xmlns="http://www.w3.org/2000/svg" xmlns:xlink="http://www.w3.org/1999/xlink" x="0px" y="0px"
	 viewBox="0 0 2267.72 1700.79" style="enable-background:new 0 0 2267.72 1700.79;" xml:space="preserve">
<style type="text/css">
	.st0{fill:none;stroke:#0D2137;stroke-width:15;stroke-miterlimit:10;}
	.st1{fill-rule:evenodd;clip-rule:evenodd;fill:#1B75BC;}
	.st2{fill:#1B75BC;}
	.st3{fill:#0C2138;}
	.st4{fill:#FFFFFF;}
	.st5{fill:none;stroke:#1B75BC;stroke-width:3;stroke-miterlimit:10;}
</style>
<ellipse class="st0" cx="1133.86" cy="850.39" rx="1105.58" ry="829.19"/>
<g>
	<g>
		<path class="st1" d="M894.77,934.57h32.79v32.77h-32.79V934.57L894.77,934.57z M940.11,934.57h32.79v32.77h-32.79V934.57
			L940.11,934.57z M972.9,979.91v32.79h-32.79v-32.79H972.9L972.9,979.91z M927.56,1012.7h-32.79v-32.79h32.79V1012.7L927.56,1012.7
			z M1341.61,937.82h32.79v32.77h-32.79V937.82L1341.61,937.82z M1386.95,937.82h32.79v32.77h-32.79V937.82L1386.95,937.82z
			 M1419.74,983.16v32.79h-32.79v-32.79H1419.74L1419.74,983.16z M1374.4,1015.95h-32.79v-32.79h32.79V1015.95L1374.4,1015.95z"/>
	</g>
</g>
<g>
	<path class="st2" d="M520.22,1125.76c136.1-116.52,275.04-235.47,412.25-352.94c18.29,14.45,36.48,28.73,54.57,43.12
		c60.06,47.76,186.64,150.67,186.64,150.67c63.25-52.11,136.5-112,200.82-164.54c133.8,106.39,406.57,323.68,406.57,323.68
		c-28.96,0.14-70.72-0.01-99.68-0.01c-76.19-59.58-152.38-119.15-228.55-178.74c-25.49-19.94-50.95-39.91-76.48-59.92
		c-49.3,40.8-97.69,80.85-146.89,121.57c36.64,30.77,126.29,108.1,135.8,117.09c-37.81,0-75.61,0-113.42,0
		c-105.73-87.5-211.47-175-317.37-262.64c-104.02,88.11-207.04,175.38-310.06,262.64C592.64,1125.75,523.03,1125.76,520.22,1125.76z
		"/>
	<path class="st3" d="M976.33,320.86c0,154.61,0,306.9,0,461.6c-16.59-12.96-31.58-24.67-47.19-36.87
		c-8.09,7.21-15.79,14.08-25.68,22.9c-0.31-6.12-0.84-442.48-0.84-442.48c15.41-8.64,39.03-24.66,54.57-33.05
		c3.98-2.15,10.76-2.42,14.82-0.51c16.33,7.69,32.09,16.61,48.1,24.98c3.43,1.8,7.06,3.23,12.39,5.65c0-26.78,0.4-51.94-0.23-77.07
		c-0.21-8.47,2.82-12.89,9.9-16.93c75.74-43.11,151.27-86.58,227.04-129.65c3.43-1.95,9.83-2.97,12.63-1.1
		c50.72,33.92,101.09,68.36,150.56,104.51c-48.3-23.94-96.6-47.88-146.7-72.71c0,7.12,0.06,476.41,0.06,476.41
		c-18.2,10.22-55.78,33.17-73.9,43.55c0,0,0.31,174.1,0.59,253.33l-40.07,36.54l-22.05-21.3c0.72-158.86,0.68-505.59,0.68-505.59
		c-49.51-25.77-111.8-59.26-160.99-85.63C986.22,325.41,982.27,323.71,976.33,320.86z"/>
	<path class="st3" d="M1496.39,875.61c-44.14-35.25-85.46-68.25-127.42-101.76c-42.67,37.07-85.72,74.57-129.35,112.48l-0.05-226.83
		c81.53-43.38,180.59-96.3,262.1-139.72c0,0,2.48,1.38,6,3.29c48.29,26.3,96.27,53.18,144.3,79.95c1.23,0.68,2.26,1.72,2.56,4.25
		c-52.17-20.95-104.34-41.9-158.15-63.51C1496.39,654.64,1496.39,763.44,1496.39,875.61z"/>
	<path class="st3" d="M791,394.78c0,6.04,0.19,470.08,0.19,470.08c-20.52,16.66-49.88,41.79-71.5,60.09
		c-0.41-4.67-1.09-486.06-1.09-488.71C739.56,424.7,768.48,407.76,791,394.78z"/>
	<path class="st3" d="M877.87,337.54c0,5.95,0.17,452.2,0.17,453.65c-14.53,11.28-37.25,30.93-52.54,43.84
		c-0.34-4.41-1.03-467.69-1.03-467.69S862.38,345.06,877.87,337.54z"/>
</g>
<path class="st3" d="M572.79,1164.79v282.28h-45.64v-282.28H572.79z"/>
<path class="st3" d="M689.53,1447.07v21.57c0,13.54-4.68,25.13-14.05,34.76c-9.37,9.77-20.58,14.66-33.62,14.66h-28.32v-32.45h15.08
	c10.19,0,15.28-7.05,15.28-21.15v-186.17h45.63v136.33h16.91v32.46H689.53z"/>
<path class="st3" d="M889.59,1278.29h45.64v118.95c0,13.96-4.69,25.69-14.06,35.18c-9.51,9.77-20.71,14.66-33.61,14.66h-13.65
	c-13.04-0.28-24.18-5.23-33.41-14.87c-1.09-1.12-2.04-2.23-2.85-3.35c-0.81-1.11-1.63-2.3-2.44-3.56c-0.95,1.26-1.84,2.44-2.65,3.56
	c-0.82,1.12-1.77,2.23-2.85,3.35c-9.24,9.77-20.37,14.73-33.41,14.87h-13.65c-12.36,0-22.89-4.4-31.57-13.19
	c-9.24,8.66-19.9,13.06-31.99,13.19h-17.52v-32.46h13.85c6.79,0,11.95-1.47,15.48-4.4c3.39-3.07,5.1-8.51,5.1-16.33v-115.6h45.63
	v115.18c0,14.1,5.23,21.15,15.69,21.15c10.32,0,15.48-6.84,15.48-20.52v-115.81h45.64v115.18c0,14.1,5.23,21.15,15.68,21.15
	c10.32,0,15.48-7.05,15.48-21.15V1278.29z"/>
<path class="st2" d="M1028.82,1487.23H960.3c-2.04,0-3.7-1.66-3.7-3.7v-175.46c0-35.54,28.81-64.35,64.35-64.35h59.67
	c1.07,0,1.93,0.87,1.93,1.93v187.86C1082.55,1463.18,1058.49,1487.23,1028.82,1487.23z"/>
<path class="st3" d="M1334.89,1281.96c5.57,2.44,10.73,6.11,15.48,10.99c9.1,10.05,13.65,21.78,13.65,35.18v86.48h21.8v32.46H1144.4
	c-13.17,0-24.45-4.89-33.82-14.66c-4.48-4.88-7.91-10.15-10.29-15.81s-3.56-11.97-3.56-18.95v-119.36h45.64v115.6
	c0,5.31,1.36,10.19,4.07,14.66c2.71,4.05,6.59,6.07,11.61,6.07h82.1v-86.69c0-12.98,4.69-24.64,14.06-34.97
	c9.5-9.77,20.78-14.66,33.82-14.66h28.52C1323.2,1278.29,1329.32,1279.51,1334.89,1281.96z M1300.46,1251.28
	c-5.57,0-10.29-2.1-14.16-6.28c-3.87-4.19-5.81-9.35-5.81-15.5c0-2.93,0.51-5.72,1.53-8.38c1.02-2.65,2.45-4.96,4.28-6.91
	c1.84-1.95,3.97-3.49,6.42-4.61c2.45-1.11,5.03-1.68,7.74-1.68c2.71,0,5.3,0.56,7.74,1.68c2.44,1.12,4.55,2.65,6.32,4.61
	c1.76,1.95,3.15,4.26,4.17,6.91c1.02,2.65,1.53,5.44,1.53,8.38c0,6.15-1.9,11.31-5.7,15.5
	C1310.71,1249.18,1306.03,1251.28,1300.46,1251.28z M1318.39,1332.11c0.4-14.24-5.03-21.36-16.3-21.36
	c-10.87,0-16.3,7.19-16.3,21.57v82.3h32.6V1332.11z"/>
<path class="st3" d="M1499.29,1281.96c5.57,2.44,10.73,6.11,15.48,10.99c9.1,10.05,13.65,21.78,13.65,35.18v86.48h18.75v32.46
	h-167.06v-32.46h24.45v-86.69c0-12.98,4.69-24.64,14.06-34.97c9.5-9.77,20.78-14.66,33.82-14.66h28.52
	C1487.61,1278.29,1493.72,1279.51,1499.29,1281.96z M1441.43,1251.28c-5.71,0-10.46-2.1-14.26-6.28s-5.7-9.35-5.7-15.5
	c0-2.93,0.51-5.72,1.53-8.38c1.02-2.65,2.44-4.96,4.27-6.91c1.84-1.95,3.94-3.49,6.32-4.61c2.37-1.11,4.99-1.68,7.84-1.68
	c2.71,0,5.26,0.56,7.64,1.68c2.38,1.12,4.45,2.65,6.22,4.61c1.76,1.95,3.16,4.26,4.18,6.91c1.02,2.65,1.53,5.44,1.53,8.38
	c0,3.07-0.51,5.94-1.53,8.59c-1.02,2.65-2.41,4.96-4.18,6.91c-1.77,1.95-3.84,3.49-6.22,4.61
	C1446.69,1250.72,1444.15,1251.28,1441.43,1251.28z M1482.79,1332.11c0-14.24-5.43-21.36-16.3-21.36c-10.87,0-16.3,7.19-16.3,21.57
	v82.3h32.6V1332.11z M1487.47,1251.28c-5.57,0-10.29-2.1-14.16-6.28c-3.87-4.19-5.81-9.35-5.81-15.5c0-2.93,0.51-5.72,1.53-8.38
	c1.02-2.65,2.44-4.96,4.28-6.91c1.83-1.95,3.97-3.49,6.42-4.61c2.44-1.11,5.02-1.68,7.74-1.68c2.71,0,5.3,0.56,7.74,1.68
	c2.44,1.12,4.55,2.65,6.31,4.61c1.76,1.95,3.16,4.26,4.18,6.91c1.02,2.65,1.53,5.44,1.53,8.38c0,6.15-1.91,11.31-5.71,15.5
	C1497.73,1249.18,1493.04,1251.28,1487.47,1251.28z"/>
<path class="st3" d="M1730.11,1278.29h45.64v118.95c0,13.96-4.69,25.69-14.06,35.18c-9.51,9.77-20.71,14.66-33.61,14.66h-13.65
	c-13.04-0.28-24.18-5.23-33.41-14.87c-1.09-1.12-2.04-2.23-2.85-3.35c-0.81-1.11-1.63-2.3-2.44-3.56c-0.95,1.26-1.84,2.44-2.65,3.56
	c-0.82,1.12-1.77,2.23-2.85,3.35c-9.24,9.77-20.37,14.73-33.41,14.87h-13.65c-12.36,0-22.89-4.4-31.57-13.19
	c-9.24,8.66-19.9,13.06-31.99,13.19h-17.52v-32.46h13.85c6.79,0,11.95-1.47,15.48-4.4c3.39-3.07,5.1-8.51,5.1-16.33v-115.6h45.63
	v115.18c0,14.1,5.23,21.15,15.69,21.15c10.32,0,15.48-6.84,15.48-20.52v-115.81h45.64v115.18c0,14.1,5.23,21.15,15.68,21.15
	c10.32,0,15.48-7.05,15.48-21.15V1278.29z"/>
<path class="st4" d="M1083.78,1436.65c0,13.94-4.86,25.83-14.57,35.65c-9.86,9.96-21.47,14.94-34.85,14.94h-31.89v-33.08h18.16
	c5.07,0,9.08-2.35,12.04-7.05c1.41-1.99,2.4-4.2,2.96-6.62c0.56-2.42,0.85-5.05,0.85-7.9v-17.72h-32.11
	c-13.51,0-24.99-4.98-34.42-14.94c-9.71-9.82-14.57-21.7-14.57-35.65v-70.86c0-14.09,4.86-25.97,14.57-35.65
	c9.43-9.96,21.05-14.94,34.85-14.94h78.99V1436.65z M1036.47,1275.92h-9.08c-16.47,0-24.71,7.19-24.71,21.56v63.18
	c0,14.09,7.53,21.13,22.6,21.13h11.19V1275.92z"/>
<ellipse class="st5" cx="1133.86" cy="850.39" rx="1078.11" ry="808.58"/>
<path class="st2" d="M1621.67,129.13c0,0,590.3,208.41,590.3,705.91c0,591.82-705.57,774.36-705.57,774.36
	s579.78-221.21,579.78-774.36C2086.17,327.14,1621.67,129.13,1621.67,129.13z"/>
<path class="st2" d="M642.05,131.19c0,0-590.3,208.41-590.3,705.91c0,591.82,705.57,774.36,705.57,774.36
	S177.54,1390.25,177.54,837.1C177.54,329.21,642.05,131.19,642.05,131.19z"/>
</svg>
